<?xml version="1.0" encoding="utf-8"?>
<!-- Generator: Adobe Illustrator 19.0.0, SVG Export Plug-In . SVG Version: 6.00 Build 0)  -->
<svg version="1.1" id="图层_1" xmlns="http://www.w3.org/2000/svg" xmlns:xlink="http://www.w3.org/1999/xlink" x="0px" y="0px"
	 viewBox="-509 288 60 36" style="enable-background:new -509 288 60 36;" xml:space="preserve">
<style type="text/css">
	.st0{filter:url(#Adobe_OpacityMaskFilter);}
	.st1{fill:#FFFFFF;}
	.st2{mask:url(#mask-2);}
	.st3{fill:none;stroke:#676767;stroke-width:2;}
	.st4{fill:#676767;}
</style>
<title>Group 3</title>
<desc>Created with Sketch.</desc>
<g id="Welcome">
	<g id="搜索结果页" transform="translate(-782.000000, -273.000000)">
		<g id="Group-10" transform="translate(243.000000, 247.000000)">
			<g id="Group-6" transform="translate(304.000000, 26.000000)">
				<g id="Group-5" transform="translate(235.000000, 0.000000)">
					<g id="Group-3">
						<defs>
							<filter id="Adobe_OpacityMaskFilter" filterUnits="userSpaceOnUse" x="-510" y="287" width="62" height="38">
								<feColorMatrix  type="matrix" values="1 0 0 0 0  0 1 0 0 0  0 0 1 0 0  0 0 0 1 0"/>
							</filter>
						</defs>
						<mask maskUnits="userSpaceOnUse" x="-510" y="287" width="62" height="38" id="mask-2">
							<g class="st0">
								<path id="path-1" class="st1" d="M-505,288h52c2.2,0,4,1.8,4,4v28c0,2.2-1.8,4-4,4h-52c-2.2,0-4-1.8-4-4v-28
									C-509,289.8-507.2,288-505,288z"/>
							</g>
						</mask>
						<g id="Group-2-Copy" class="st2">
							<g id="Rectangle-78">
								<path id="path-1_1_" class="st3" d="M-505,288h52c2.2,0,4,1.8,4,4v28c0,2.2-1.8,4-4,4h-52c-2.2,0-4-1.8-4-4v-28
									C-509,289.8-507.2,288-505,288z"/>
							</g>
							<path id="卖一" class="st4" d="M-497.4,305.9l-0.6,0.9c1.6,0.6,3.1,1.3,4.7,2.4l0.6-0.9
								C-494.1,307.3-495.7,306.5-497.4,305.9L-497.4,305.9z M-495.4,303.7l-0.6,0.9c1.5,0.5,3.1,1.2,4.5,2.1l0.6-0.9
								C-492.3,304.9-493.8,304.2-495.4,303.7L-495.4,303.7z M-489,303.6v3.4c0,0.9-0.2,1.8-0.5,2.6h-9.5v1.1h9
								c-0.3,0.5-0.7,0.9-1.1,1.3c-1.5,1.3-4.1,2.3-7.8,3l0.7,1c3.7-0.8,6.3-1.8,7.9-3.2l0.4-0.4c2.8,0.9,5.5,2.1,8.2,3.7l0.7-1
								c-2.5-1.3-5.2-2.5-8.1-3.5c0.2-0.3,0.4-0.6,0.5-0.9h7.9v-1.1h-7.5c0.3-0.8,0.4-1.7,0.4-2.6v-3.4H-489z M-498.8,301.5v1.1h16
								c-0.4,1.4-0.8,2.6-1.4,3.8l1.1,0.3c0.6-1.5,1.1-2.9,1.4-4.4v-0.8h-7.8V299h6.5v-1.1h-6.5v-1.8h-1.2v1.8h-6.7v1.1h6.7v2.4
								H-498.8z M-477.9,305.3v1.2h19.7v-1.2H-477.9z"/>
						</g>
					</g>
				</g>
			</g>
		</g>
	</g>
</g>
</svg>
