<?xml version="1.0" encoding="utf-8"?>
<!-- Generator: Adobe Illustrator 19.0.0, SVG Export Plug-In . SVG Version: 6.00 Build 0)  -->
<svg version="1.1" id="图层_1" xmlns="http://www.w3.org/2000/svg" xmlns:xlink="http://www.w3.org/1999/xlink" x="0px" y="0px"
	 viewBox="-508 289 62 34" style="enable-background:new -508 289 62 34;" xml:space="preserve">
<style type="text/css">
	.st0{fill:#FFFFFF;}
</style>
<title>Group</title>
<desc>Created with Sketch.</desc>
<g id="Welcome">
	<g id="Artboard-5" transform="translate(-27.000000, -8.000000)">
		<g id="Group" transform="translate(27.000000, 8.000000)">
			<g id="lasso" transform="translate(15.964912, 0.000000)">
				<g id="Capa_1">
					<path id="Shape" class="st0" d="M-494,289.2c-7.8,0-14,6.3-14,14.2c0,5.6,3.2,10.5,7.9,12.8c0.2,1.8,1.5,3.2,3,3.2
						c1.1,0,2-0.7,2.6-1.8c0.2,0,0.4,0,0.6,0c0.6,0,1.1,0,1.7-0.1v3.9c0,0.9,0.6,1.7,1.4,1.7c0.8,0,1.4-0.8,1.4-1.7v-4.5
						c5.5-1.9,9.5-7.2,9.5-13.4C-479.9,295.5-486.2,289.2-494,289.2z M-494,314.1c-0.3,0-0.7,0-1,0c-0.2-0.1-0.3-0.1-0.5-0.1
						c-0.1,0-0.2,0-0.3,0c-0.5-0.1-1-0.2-1.5-0.3v-0.7c0-1.7,1.1-3,2.5-3s2.5,1.4,2.5,3v1.1C-492.9,314-493.4,314.1-494,314.1
						L-494,314.1z M-485.9,310.7c-1,1-2.3,1.9-3.6,2.4v-0.3c0-3.6-2.4-6.5-5.3-6.5c-2.8,0-5.1,2.6-5.3,5.9c-0.7-0.5-1.4-1-2-1.6
						c-2-2-3.1-4.6-3.1-7.4c0-2.7,1.1-5.4,3.1-7.4c2.1-2.2,5-3.4,8.1-3.4c3.1,0,6,1.2,8.1,3.4c2,2,3.1,4.6,3.1,7.4
						S-483.9,308.7-485.9,310.7L-485.9,310.7z"/>
				</g>
			</g>
			<path id="L" class="st0" d="M-507.4,295.9v0.6c0,2.8-0.1,8.9-0.1,12.8c0,1,0,1.9,0,2.5c0.1,2.5,1.6,3.4,4.2,3.6
				c0.4,0,2,0.1,3.6,0.1c1.7,0,3.3,0,3.7-0.1c1.2-0.1,1.8-0.8,1.8-1.6s-0.6-1.5-1.5-1.5h-0.1c-0.5,0-2.3,0.1-4,0.1
				c-3.8,0-4.4,0-4.5-1.3c0-0.5-0.1-1.7-0.1-3.3c0-3.9,0.1-9.8,0.2-11.6v-0.1c0-1.2-0.8-1.7-1.6-1.7
				C-506.6,294.2-507.4,294.8-507.4,295.9L-507.4,295.9z"/>
			<path id="F" class="st0" d="M-459.3,314c0,1,0.7,1.5,1.5,1.5c0.8,0,1.6-0.5,1.6-1.4v-1c0-1.8,0-5.2,0-6.9c0-0.6,0.4-0.6,3.5-0.6
				c1,0,2,0,2.7,0.1h0.1c1,0,1.5-0.8,1.5-1.6c0-0.1,0-1.6-1.6-1.5c-0.5,0-1.7,0-2.9,0c-3.3,0-3.3,0-3.3-0.6c0-1.6,0-3.1,0.1-3.7
				c0.1-1.2,0.7-1.3,3.4-1.3c1.9,0,4.3,0,4.3,0c1.1,0,1.7-0.8,1.7-1.5c0-0.7-0.5-1.4-1.6-1.5c-0.4,0-1.9-0.1-3.5-0.1
				c-1.5,0-3.1,0-3.6,0.1c-2.3,0.1-3.7,1.3-3.8,3.5C-459.2,300.5-459.2,310.6-459.3,314L-459.3,314z"/>
		</g>
	</g>
</g>
</svg>
