<?xml version="1.0" encoding="utf-8"?>
<!-- Generator: Adobe Illustrator 19.0.0, SVG Export Plug-In . SVG Version: 6.00 Build 0)  -->
<svg version="1.1" id="图层_1" xmlns="http://www.w3.org/2000/svg" xmlns:xlink="http://www.w3.org/1999/xlink" x="0px" y="0px"
	 viewBox="-508 288 62 36" style="enable-background:new -508 288 62 36;" xml:space="preserve">
<style type="text/css">
	.st0{filter:url(#Adobe_OpacityMaskFilter);}
	.st1{fill:#FFFFFF;}
	.st2{mask:url(#mask-2);}
	.st3{fill:none;stroke:#676767;stroke-width:2;}
	.st4{fill:#676767;}
</style>
<title>Group 3</title>
<desc>Created with Sketch.</desc>
<g id="Welcome">
	<g id="搜索结果页" transform="translate(-987.000000, -272.000000)">
		<g id="Group-10" transform="translate(243.000000, 247.000000)">
			<g id="Group-3" transform="translate(744.000000, 25.000000)">
				<defs>
					<filter id="Adobe_OpacityMaskFilter" filterUnits="userSpaceOnUse" x="-509" y="287" width="64" height="38">
						<feColorMatrix  type="matrix" values="1 0 0 0 0  0 1 0 0 0  0 0 1 0 0  0 0 0 1 0"/>
					</filter>
				</defs>
				<mask maskUnits="userSpaceOnUse" x="-509" y="287" width="64" height="38" id="mask-2">
					<g class="st0">
						<path id="path-1" class="st1" d="M-504,288h54c2.2,0,4,1.8,4,4v28c0,2.2-1.8,4-4,4h-54c-2.2,0-4-1.8-4-4v-28
							C-508,289.8-506.2,288-504,288z"/>
					</g>
				</mask>
				<g id="Group-2-Copy" class="st2">
					<g id="Rectangle-78">
						<path id="path-1_1_" class="st3" d="M-504,288h54c2.2,0,4,1.8,4,4v28c0,2.2-1.8,4-4,4h-54c-2.2,0-4-1.8-4-4v-28
							C-508,289.8-506.2,288-504,288z"/>
					</g>
					<path id="预测" class="st4" d="M-489.9,297.1v1.1h5.1c-0.1,1-0.3,1.9-0.5,2.8h-3.7v10.2h1.1v-9.1h6.8v9.1h1.1V301h-4.2
						c0.2-0.9,0.4-1.8,0.5-2.8h4.6v-1.1H-489.9z M-483.1,311.3l-0.8,0.7c1.7,1.4,3.1,2.8,4.2,4l0.8-0.8
						C-480,314-481.4,312.6-483.1,311.3L-483.1,311.3z M-485.1,303.5v4c0,2-0.5,3.5-1.3,4.8c-0.9,1.2-2.4,2.1-4.5,2.8l0.7,1
						c2.2-0.7,3.7-1.7,4.7-3c1-1.4,1.5-3.2,1.5-5.6v-4H-485.1z M-496.8,299.8l-0.9,0.5c1.3,1.2,2.4,2.4,3.3,3.4h-4.5v1.1h3.3v9.3
						c0,0.5-0.3,0.8-0.8,0.8c-0.6,0-1.3,0-1.9-0.1l0.3,1.1h2.1c1,0,1.5-0.5,1.5-1.5v-9.6h2.8c-0.4,1.3-0.7,2.4-1.2,3.3l1,0.4
						c0.5-1,0.9-2.3,1.3-4v-0.7h-2.4c-0.4-0.4-0.7-0.9-1.2-1.5c1.1-1.2,2.1-2.6,3-4.3v-0.9h-7v1.1h5.7c-0.7,1.2-1.5,2.3-2.4,3.3
						C-495.6,301-496.2,300.4-496.8,299.8L-496.8,299.8z M-475.2,296.6l-0.8,0.8c1.3,1,2.4,2,3.2,2.9l0.8-0.8
						C-472.8,298.6-473.9,297.6-475.2,296.6L-475.2,296.6z M-475.5,302l-0.8,0.8c1.3,1.1,2.3,2.1,3.1,3.1l0.8-0.8
						C-473.3,304.1-474.3,303.1-475.5,302L-475.5,302z M-473.2,307.9c-0.8,2.6-1.8,5.1-2.9,7.5l1.1,0.5c1.1-2.4,2-4.9,2.9-7.6
						L-473.2,307.9z M-463.8,297.2h-7v13.4h1.1v-12.4h4.9v12.3h1.1V297.2z M-466.2,311.6l-0.7,0.7c1.4,1.3,2.6,2.6,3.4,3.8l0.8-0.8
						C-463.6,314.1-464.8,312.9-466.2,311.6L-466.2,311.6z M-467.8,299.9v7c0,2.1-0.3,3.8-0.9,5.1c-0.7,1.3-1.8,2.3-3.4,3l0.6,1
						c1.6-0.8,2.8-1.9,3.6-3.2c0.7-1.5,1.1-3.5,1.2-5.9v-7H-467.8z M-458.9,316c1,0,1.5-0.6,1.5-1.7v-18.1h-1.1V314
						c0,0.6-0.3,0.9-0.8,0.9c-0.7,0-1.5,0-2.3-0.1l0.2,1.1H-458.9z M-461.8,298v13.8h1.1V298H-461.8z"/>
				</g>
			</g>
		</g>
	</g>
</g>
</svg>
