<?xml version="1.0" encoding="utf-8"?>
<!-- Generator: Adobe Illustrator 19.0.0, SVG Export Plug-In . SVG Version: 6.00 Build 0)  -->
<svg version="1.1" id="图层_1" xmlns="http://www.w3.org/2000/svg" xmlns:xlink="http://www.w3.org/1999/xlink" x="0px" y="0px"
	 viewBox="-521 288 36 36" style="enable-background:new -521 288 36 36;" xml:space="preserve">
<style type="text/css">
	.st0{filter:url(#Adobe_OpacityMaskFilter);}
	.st1{fill:#FFFFFF;}
	.st2{mask:url(#mask-2);}
	.st3{fill:none;stroke:#676767;stroke-width:2;}
	.st4{fill:#676767;}
</style>
<title>Group 2</title>
<desc>Created with Sketch.</desc>
<g id="Welcome">
	<g id="搜索结果页" transform="translate(-547.000000, -273.000000)">
		<g id="Group-10" transform="translate(243.000000, 247.000000)">
			<g id="Group-6" transform="translate(304.000000, 26.000000)">
				<g id="Group-4">
					<defs>
						<filter id="Adobe_OpacityMaskFilter" filterUnits="userSpaceOnUse" x="-522" y="287" width="38" height="38">
							<feColorMatrix  type="matrix" values="1 0 0 0 0  0 1 0 0 0  0 0 1 0 0  0 0 0 1 0"/>
						</filter>
					</defs>
					<mask maskUnits="userSpaceOnUse" x="-522" y="287" width="38" height="38" id="mask-2">
						<g class="st0">
							<path id="path-1" class="st1" d="M-517,288h28c2.2,0,4,1.8,4,4v28c0,2.2-1.8,4-4,4h-28c-2.2,0-4-1.8-4-4v-28
								C-521,289.8-519.2,288-517,288z"/>
						</g>
					</mask>
					<g id="Group-2" class="st2">
						<g id="Rectangle-78">
							<path id="path-1_1_" class="st3" d="M-517,288h28c2.2,0,4,1.8,4,4v28c0,2.2-1.8,4-4,4h-28c-2.2,0-4-1.8-4-4v-28
								C-521,289.8-519.2,288-517,288z"/>
						</g>
						<path id="昨" class="st4" d="M-502.6,300.4h1.5v15.8h1.2v-5.2h6.8v-1.1h-6.8v-4.1h6.3v-1.1h-6.3v-4.2h7.1v-1.2h-9.3
							c0.3-0.9,0.5-1.9,0.8-2.9l-1.2-0.3c-0.7,3.1-1.7,5.9-3.2,8.4l1,0.7C-503.9,303.7-503.2,302.1-502.6,300.4L-502.6,300.4z
							 M-505.9,297.9h-5.9v16.4h1.2v-1.9h3.6v1.4h1.2V297.9z M-510.7,311.2v-5.6h3.6v5.6H-510.7z M-510.7,304.5V299h3.6v5.5H-510.7z
							"/>
					</g>
				</g>
			</g>
		</g>
	</g>
</g>
</svg>
